<svg width="32" height="32" viewBox="0 0 32 32" fill="none" xmlns="http://www.w3.org/2000/svg">
<path fill-rule="evenodd" clip-rule="evenodd" d="M4.58127 7.36841C3.54297 9.1668 3.54297 11.5812 3.54297 16.4101C3.54297 21.2389 3.54297 23.6533 4.58127 25.4517C5.26148 26.6299 6.23982 27.6082 7.41797 28.2884C9.21636 29.3267 11.6308 29.3267 16.4596 29.3267C21.2885 29.3267 23.7029 29.3267 25.5013 28.2884C26.6795 27.6082 27.6578 26.6299 28.338 25.4517C29.3763 23.6533 29.3763 21.2389 29.3763 16.4101C29.3763 11.5812 29.3763 9.1668 28.338 7.36841C27.6578 6.19026 26.6795 5.21192 25.5013 4.53171C23.7029 3.49341 21.2885 3.49341 16.4596 3.49341C11.6308 3.49341 9.21636 3.49341 7.41797 4.53171C6.23982 5.21192 5.26148 6.19026 4.58127 7.36841ZM18.1163 13.8104C18.1163 12.8622 18.9084 12.0936 19.8854 12.0936H22.918V8.66008H19.8854C16.9543 8.66008 14.5783 10.966 14.5783 13.8104V16.5082H11.293V19.9417H14.5783V28.0351H18.1163V19.9417H21.9071L22.4125 16.5082H18.1163V13.8104Z" fill="white"/>
</svg>
