<svg width="24" height="24" viewBox="0 0 24 24" fill="none" xmlns="http://www.w3.org/2000/svg">
<path fill-rule="evenodd" clip-rule="evenodd" d="M10.4459 4.01814L2.64138 17.8678C1.89009 19.2011 2.85344 20.8497 4.38378 20.8497H19.6184C21.1304 20.8497 22.0956 19.2366 21.3808 17.9042L13.9507 4.0545C13.2052 2.66501 11.22 2.64441 10.4459 4.01814ZM12.8638 9.37963C12.8742 8.89691 12.4857 8.5 12.0028 8.5C11.5202 8.5 11.1318 8.89656 11.1419 9.37907L11.2538 14.7536C11.2623 15.1603 11.5943 15.4855 12.0011 15.4855C12.4076 15.4855 12.7397 15.1606 12.7484 14.7541L12.8638 9.37963ZM11.2918 18.1908C11.4887 18.3969 11.7251 18.5 12.0009 18.5C12.1827 18.5 12.3478 18.4533 12.4963 18.3599C12.6478 18.2633 12.769 18.1345 12.8599 17.9734C12.9539 17.8124 13.0009 17.6337 13.0009 17.4372C13.0009 17.1473 12.9009 16.8994 12.7009 16.6932C12.5039 16.4871 12.2706 16.3841 12.0009 16.3841C11.7251 16.3841 11.4887 16.4871 11.2918 16.6932C11.0978 16.8994 11.0009 17.1473 11.0009 17.4372C11.0009 17.7335 11.0978 17.9847 11.2918 18.1908Z" fill="#012376"/>
</svg>
