<svg width="32" height="32" viewBox="0 0 32 32" fill="none" xmlns="http://www.w3.org/2000/svg">
<path d="M16.3757 21.5767C18.8724 21.5767 20.8965 19.5527 20.8965 17.0559C20.8965 14.5591 18.8724 12.5351 16.3757 12.5351C13.8789 12.5351 11.8548 14.5591 11.8548 17.0559C11.8548 19.5527 13.8789 21.5767 16.3757 21.5767Z" fill="white"/>
<path fill-rule="evenodd" clip-rule="evenodd" d="M3.45898 16.4101C3.45898 11.5812 3.45898 9.1668 4.49729 7.36841C5.17749 6.19026 6.15584 5.21192 7.33398 4.53171C9.13238 3.49341 11.5468 3.49341 16.3757 3.49341C21.2045 3.49341 23.6189 3.49341 25.4173 4.53171C26.5955 5.21192 27.5738 6.19026 28.254 7.36841C29.2923 9.1668 29.2923 11.5812 29.2923 16.4101C29.2923 21.2389 29.2923 23.6533 28.254 25.4517C27.5738 26.6299 26.5955 27.6082 25.4173 28.2884C23.6189 29.3267 21.2045 29.3267 16.3757 29.3267C11.5468 29.3267 9.13238 29.3267 7.33398 28.2884C6.15584 27.6082 5.17749 26.6299 4.49729 25.4517C3.45898 23.6533 3.45898 21.2389 3.45898 16.4101ZM16.3757 23.5142C19.9425 23.5142 22.834 20.6227 22.834 17.0559C22.834 13.4891 19.9425 10.5976 16.3757 10.5976C12.8088 10.5976 9.91732 13.4891 9.91732 17.0559C9.91732 20.6227 12.8088 23.5142 16.3757 23.5142ZM22.1882 11.2434C23.2582 11.2434 24.1257 10.376 24.1257 9.30591C24.1257 8.23586 23.2582 7.36841 22.1882 7.36841C21.1181 7.36841 20.2507 8.23586 20.2507 9.30591C20.2507 10.376 21.1181 11.2434 22.1882 11.2434Z" fill="white"/>
</svg>
