<svg width="31" height="32" viewBox="0 0 31 32" fill="none" xmlns="http://www.w3.org/2000/svg">
<path fill-rule="evenodd" clip-rule="evenodd" d="M2.58398 16.4101C2.58398 11.5812 2.58398 9.1668 3.62229 7.36841C4.30249 6.19026 5.28084 5.21192 6.45898 4.53171C8.25738 3.49341 10.6718 3.49341 15.5007 3.49341C20.3295 3.49341 22.7439 3.49341 24.5423 4.53171C25.7205 5.21192 26.6988 6.19026 27.379 7.36841C28.4173 9.1668 28.4173 11.5812 28.4173 16.4101C28.4173 21.2389 28.4173 23.6533 27.379 25.4517C26.6988 26.6299 25.7205 27.6082 24.5423 28.2884C22.7439 29.3267 20.3295 29.3267 15.5007 29.3267C10.6718 29.3267 8.25738 29.3267 6.45898 28.2884C5.28084 27.6082 4.30249 26.6299 3.62229 25.4517C2.58398 23.6533 2.58398 21.2389 2.58398 16.4101ZM16.8251 24.9352V16.8547C16.9877 16.6015 17.202 16.4046 17.468 16.2639C17.734 16.1233 18.0591 16.0529 18.4433 16.0529C18.8054 16.0529 19.1121 16.0987 19.3633 16.1901C19.6145 16.2815 19.8066 16.4503 19.9396 16.6964C20.0726 16.9355 20.1391 17.2837 20.1391 17.7408V24.9352H23.8965V17.7513C23.8965 16.9215 23.8041 16.2252 23.6194 15.6626C23.4421 15.093 23.1834 14.6359 22.8435 14.2913C22.511 13.9467 22.112 13.697 21.6465 13.5423C21.1884 13.3876 20.6822 13.3102 20.1281 13.3102C19.4335 13.3102 18.8017 13.4368 18.2328 13.69C17.6712 13.9361 17.1872 14.2983 16.7808 14.7765C16.7601 14.8009 16.7396 14.8256 16.7194 14.8505L16.5924 13.5212H13.09V24.9352H16.8251ZM10.8511 13.5212V24.9352H7.10482V13.5212H10.8511ZM9.04235 12.0183C10.1837 12.0183 11.109 11.093 11.109 9.95162C11.109 8.81023 10.1837 7.88495 9.04235 7.88495C7.90096 7.88495 6.97568 8.81023 6.97568 9.95162C6.97568 11.093 7.90096 12.0183 9.04235 12.0183Z" fill="white"/>
</svg>
