<svg width="32" height="32" viewBox="0 0 32 32" fill="none" xmlns="http://www.w3.org/2000/svg">
<path fill-rule="evenodd" clip-rule="evenodd" d="M5.01458 15.7072C11.2469 12.95 15.4129 11.1679 17.4793 10.2937C23.4117 7.80552 24.6448 7.36841 25.4447 7.36841C25.6113 7.36841 26.0113 7.40203 26.2779 7.60378C26.4779 7.7719 26.5445 8.00727 26.5779 8.17539C26.6112 8.34351 26.6445 8.71338 26.6112 9.01599C26.2779 12.412 24.9115 20.7172 24.1782 24.5167C23.8783 26.1307 23.2784 26.6687 22.7118 26.7359C21.4787 26.8368 20.5121 25.8953 19.3123 25.122C17.446 23.8779 16.3795 23.1045 14.5464 21.8941C12.4467 20.4818 13.8132 19.7085 15.013 18.4644C15.313 18.1281 20.8121 13.1181 20.9121 12.6474C20.9121 12.5802 20.9454 12.3784 20.8121 12.2775C20.6788 12.1767 20.5121 12.2103 20.3788 12.2439C20.1789 12.2775 17.1793 14.295 11.3469 18.2626C10.4804 18.8679 9.71384 19.1369 9.01395 19.1369C8.2474 19.1369 6.78097 18.6998 5.68114 18.3299C4.34802 17.8928 3.28152 17.6574 3.3815 16.9177C3.48148 16.5142 4.01473 16.1107 5.01458 15.7072Z" fill="white"/>
</svg>
