<svg width="32" height="32" viewBox="0 0 32 32" fill="none" xmlns="http://www.w3.org/2000/svg">
<path d="M26.1916 6.71053C26.5415 6.3058 26.4971 5.69403 26.0923 5.3441C25.6876 4.99417 25.0759 5.03859 24.7259 5.44331L17.9039 13.3336L12.1029 5.599C11.8712 5.29002 11.5075 5.10817 11.1212 5.10817H6.60041C5.58924 5.10817 5.01203 6.26256 5.61874 7.0715L13.7464 17.9084L6.64315 26.1093C6.29286 26.5138 6.33674 27.1256 6.74116 27.4758C7.14557 27.8261 7.75738 27.7823 8.10767 27.3778L14.9359 19.4944L20.7312 27.2215C20.963 27.5305 21.3267 27.7123 21.7129 27.7123H26.2337C27.2449 27.7123 27.8221 26.5579 27.2154 25.749L19.0936 14.9199L26.1916 6.71053Z" fill="white"/>
</svg>
