<svg width="32" height="32" viewBox="0 0 32 32" fill="none" xmlns="http://www.w3.org/2000/svg">
<path fill-rule="evenodd" clip-rule="evenodd" d="M23.4158 6.05897L24.2263 6.07837C27.0143 6.14508 29.2513 8.17496 29.2513 10.6693V22.1508C29.2513 24.6451 27.0143 26.6749 24.2263 26.7416L23.4158 26.761C23.4126 26.7611 24.3009 26.7377 23.9456 26.7471C23.1441 26.7682 19.0546 26.8725 16.3346 26.8725C13.6146 26.8725 9.52516 26.7682 8.72367 26.7471C8.36833 26.7377 9.25668 26.7611 9.25349 26.761L8.44298 26.7416C5.655 26.6749 3.41797 24.6451 3.41797 22.1508V10.6693C3.41797 8.17496 5.655 6.14508 8.44298 6.07837L9.25347 6.05897C9.25347 6.05897 8.80408 6.07084 8.67426 6.07426L8.72367 6.07296C9.52516 6.05181 13.6146 5.94751 16.3346 5.94751C19.0546 5.94751 23.1441 6.05181 23.9456 6.07296L23.9936 6.07423C23.8619 6.07075 23.4158 6.05897 23.4158 6.05897ZM12.4596 19.1507V13.6696C12.4596 11.7351 14.6365 10.5813 16.2617 11.6543L20.4123 14.3949C21.8643 15.3536 21.8643 17.4667 20.4123 18.4254L16.2617 21.1659C14.6365 22.239 12.4596 21.0852 12.4596 19.1507Z" fill="white"/>
</svg>
