<svg width="1920" height="911" viewBox="0 0 1920 911" fill="none" xmlns="http://www.w3.org/2000/svg">
<g clip-path="url(#clip0_537_144)">
<rect width="1920" height="911" rx="20" fill="white"/>
<path d="M641.535 782.341C639.958 782.341 638.598 781.993 637.455 781.297C636.318 780.594 635.441 779.614 634.823 778.357C634.213 777.092 633.907 775.622 633.907 773.946C633.907 772.27 634.213 770.793 634.823 769.514C635.441 768.229 636.301 767.227 637.401 766.51C638.509 765.786 639.802 765.423 641.279 765.423C642.132 765.423 642.973 765.565 643.804 765.849C644.635 766.134 645.392 766.595 646.073 767.234C646.755 767.866 647.298 768.705 647.703 769.749C648.108 770.793 648.311 772.078 648.311 773.605V774.67H635.697V772.497H645.754C645.754 771.574 645.569 770.75 645.2 770.026C644.838 769.301 644.319 768.729 643.644 768.31C642.977 767.891 642.188 767.682 641.279 767.682C640.278 767.682 639.411 767.93 638.68 768.428C637.955 768.918 637.398 769.557 637.007 770.345C636.617 771.134 636.421 771.979 636.421 772.881V774.33C636.421 775.565 636.634 776.613 637.061 777.472C637.494 778.325 638.094 778.974 638.861 779.422C639.628 779.862 640.519 780.082 641.535 780.082C642.195 780.082 642.792 779.99 643.325 779.805C643.865 779.614 644.33 779.33 644.72 778.953C645.111 778.57 645.413 778.094 645.626 777.526L648.055 778.207C647.799 779.031 647.369 779.756 646.766 780.381C646.162 780.999 645.416 781.482 644.529 781.83C643.641 782.17 642.643 782.341 641.535 782.341ZM661.51 771.474V773.818H651.965V771.474H661.51ZM678.207 765.636C678.079 764.557 677.56 763.719 676.651 763.122C675.742 762.526 674.627 762.227 673.306 762.227C672.34 762.227 671.495 762.384 670.771 762.696C670.053 763.009 669.492 763.438 669.087 763.985C668.69 764.532 668.491 765.153 668.491 765.849C668.491 766.432 668.629 766.933 668.906 767.352C669.19 767.763 669.553 768.108 669.993 768.385C670.433 768.655 670.895 768.879 671.378 769.056C671.861 769.227 672.305 769.365 672.71 769.472L674.925 770.068C675.494 770.217 676.126 770.423 676.822 770.686C677.525 770.949 678.196 771.308 678.835 771.762C679.482 772.21 680.014 772.785 680.433 773.488C680.852 774.191 681.062 775.054 681.062 776.077C681.062 777.256 680.753 778.321 680.135 779.273C679.524 780.224 678.629 780.981 677.45 781.542C676.278 782.103 674.854 782.384 673.178 782.384C671.616 782.384 670.263 782.131 669.119 781.627C667.983 781.123 667.088 780.42 666.435 779.518C665.788 778.616 665.423 777.568 665.337 776.375H668.065C668.136 777.199 668.413 777.881 668.896 778.42C669.386 778.953 670.004 779.351 670.749 779.614C671.502 779.869 672.312 779.997 673.178 779.997C674.187 779.997 675.092 779.834 675.895 779.507C676.697 779.173 677.333 778.712 677.802 778.122C678.271 777.526 678.505 776.83 678.505 776.034C678.505 775.31 678.303 774.72 677.898 774.266C677.493 773.811 676.96 773.442 676.3 773.158C675.639 772.874 674.925 772.625 674.158 772.412L671.474 771.645C669.769 771.155 668.42 770.455 667.425 769.546C666.431 768.637 665.934 767.447 665.934 765.977C665.934 764.756 666.264 763.69 666.925 762.781C667.592 761.865 668.487 761.155 669.609 760.651C670.739 760.139 671.999 759.884 673.391 759.884C674.798 759.884 676.048 760.136 677.141 760.64C678.235 761.137 679.102 761.819 679.741 762.685C680.387 763.552 680.728 764.536 680.763 765.636H678.207ZM691.926 782.341C690.349 782.341 688.989 781.993 687.845 781.297C686.709 780.594 685.832 779.614 685.214 778.357C684.603 777.092 684.298 775.622 684.298 773.946C684.298 772.27 684.603 770.793 685.214 769.514C685.832 768.229 686.691 767.227 687.792 766.51C688.9 765.786 690.193 765.423 691.67 765.423C692.522 765.423 693.364 765.565 694.195 765.849C695.026 766.134 695.782 766.595 696.464 767.234C697.146 767.866 697.689 768.705 698.094 769.749C698.499 770.793 698.701 772.078 698.701 773.605V774.67H686.088V772.497H696.144C696.144 771.574 695.96 770.75 695.59 770.026C695.228 769.301 694.71 768.729 694.035 768.31C693.367 767.891 692.579 767.682 691.67 767.682C690.669 767.682 689.802 767.93 689.07 768.428C688.346 768.918 687.789 769.557 687.398 770.345C687.007 771.134 686.812 771.979 686.812 772.881V774.33C686.812 775.565 687.025 776.613 687.451 777.472C687.884 778.325 688.485 778.974 689.252 779.422C690.019 779.862 690.91 780.082 691.926 780.082C692.586 780.082 693.183 779.99 693.715 779.805C694.255 779.614 694.72 779.33 695.111 778.953C695.502 778.57 695.803 778.094 696.017 777.526L698.445 778.207C698.19 779.031 697.76 779.756 697.156 780.381C696.553 780.999 695.807 781.482 694.919 781.83C694.031 782.17 693.034 782.341 691.926 782.341ZM707.341 782.384C706.304 782.384 705.363 782.188 704.518 781.798C703.673 781.4 703.002 780.828 702.504 780.082C702.007 779.33 701.759 778.42 701.759 777.355C701.759 776.418 701.943 775.658 702.313 775.075C702.682 774.486 703.176 774.024 703.794 773.69C704.411 773.357 705.093 773.108 705.839 772.945C706.592 772.774 707.348 772.639 708.108 772.54C709.102 772.412 709.909 772.316 710.526 772.252C711.151 772.181 711.606 772.064 711.89 771.901C712.181 771.737 712.327 771.453 712.327 771.048V770.963C712.327 769.912 712.039 769.095 711.464 768.513C710.896 767.93 710.033 767.639 708.875 767.639C707.675 767.639 706.734 767.902 706.052 768.428C705.37 768.953 704.891 769.514 704.614 770.111L702.227 769.259C702.654 768.264 703.222 767.49 703.932 766.936C704.649 766.375 705.431 765.984 706.276 765.764C707.128 765.537 707.966 765.423 708.79 765.423C709.316 765.423 709.919 765.487 710.601 765.615C711.29 765.736 711.954 765.988 712.593 766.371C713.24 766.755 713.776 767.334 714.202 768.108C714.628 768.882 714.841 769.919 714.841 771.219V782H712.327V779.784H712.199C712.029 780.139 711.744 780.519 711.347 780.924C710.949 781.329 710.42 781.673 709.759 781.957C709.099 782.241 708.293 782.384 707.341 782.384ZM707.725 780.125C708.719 780.125 709.557 779.93 710.239 779.539C710.928 779.148 711.446 778.644 711.794 778.026C712.149 777.408 712.327 776.759 712.327 776.077V773.776C712.22 773.903 711.986 774.021 711.624 774.127C711.269 774.227 710.857 774.315 710.388 774.393C709.926 774.464 709.475 774.528 709.035 774.585C708.602 774.635 708.25 774.678 707.98 774.713C707.327 774.798 706.716 774.937 706.148 775.129C705.587 775.313 705.132 775.594 704.784 775.97C704.443 776.339 704.273 776.844 704.273 777.483C704.273 778.357 704.596 779.017 705.242 779.464C705.896 779.905 706.723 780.125 707.725 780.125ZM721.944 760.182V782H719.43V760.182H721.944ZM752.884 767H750.242C750.086 766.24 749.813 765.572 749.422 764.997C749.039 764.422 748.57 763.939 748.016 763.548C747.469 763.151 746.862 762.852 746.194 762.653C745.526 762.455 744.83 762.355 744.106 762.355C742.785 762.355 741.588 762.689 740.516 763.357C739.45 764.024 738.602 765.008 737.97 766.308C737.345 767.607 737.032 769.202 737.032 771.091C737.032 772.98 737.345 774.575 737.97 775.874C738.602 777.174 739.45 778.158 740.516 778.825C741.588 779.493 742.785 779.827 744.106 779.827C744.83 779.827 745.526 779.727 746.194 779.528C746.862 779.33 747.469 779.035 748.016 778.644C748.57 778.246 749.039 777.76 749.422 777.185C749.813 776.602 750.086 775.935 750.242 775.182H752.884C752.686 776.297 752.323 777.295 751.798 778.175C751.272 779.056 750.619 779.805 749.838 780.423C749.056 781.034 748.179 781.499 747.206 781.819C746.24 782.138 745.207 782.298 744.106 782.298C742.245 782.298 740.59 781.844 739.142 780.935C737.693 780.026 736.553 778.733 735.722 777.057C734.891 775.381 734.475 773.392 734.475 771.091C734.475 768.79 734.891 766.801 735.722 765.125C736.553 763.449 737.693 762.156 739.142 761.247C740.59 760.338 742.245 759.884 744.106 759.884C745.207 759.884 746.24 760.043 747.206 760.363C748.179 760.683 749.056 761.151 749.838 761.769C750.619 762.38 751.272 763.126 751.798 764.006C752.323 764.88 752.686 765.878 752.884 767ZM763.674 782.341C762.097 782.341 760.737 781.993 759.593 781.297C758.457 780.594 757.58 779.614 756.962 778.357C756.351 777.092 756.046 775.622 756.046 773.946C756.046 772.27 756.351 770.793 756.962 769.514C757.58 768.229 758.439 767.227 759.54 766.51C760.648 765.786 761.941 765.423 763.418 765.423C764.27 765.423 765.112 765.565 765.943 765.849C766.774 766.134 767.53 766.595 768.212 767.234C768.894 767.866 769.437 768.705 769.842 769.749C770.247 770.793 770.449 772.078 770.449 773.605V774.67H757.836V772.497H767.892C767.892 771.574 767.708 770.75 767.338 770.026C766.976 769.301 766.458 768.729 765.783 768.31C765.115 767.891 764.327 767.682 763.418 767.682C762.417 767.682 761.55 767.93 760.819 768.428C760.094 768.918 759.537 769.557 759.146 770.345C758.755 771.134 758.56 771.979 758.56 772.881V774.33C758.56 775.565 758.773 776.613 759.199 777.472C759.632 778.325 760.233 778.974 761 779.422C761.767 779.862 762.658 780.082 763.674 780.082C764.334 780.082 764.931 779.99 765.463 779.805C766.003 779.614 766.468 779.33 766.859 778.953C767.25 778.57 767.551 778.094 767.765 777.526L770.194 778.207C769.938 779.031 769.508 779.756 768.904 780.381C768.301 780.999 767.555 781.482 766.667 781.83C765.779 782.17 764.782 782.341 763.674 782.341ZM774.274 782V765.636H776.703V768.108H776.873C777.172 767.298 777.711 766.641 778.493 766.137C779.274 765.633 780.154 765.381 781.135 765.381C781.319 765.381 781.55 765.384 781.827 765.391C782.104 765.398 782.314 765.409 782.456 765.423V767.98C782.37 767.959 782.175 767.927 781.87 767.884C781.571 767.835 781.255 767.81 780.922 767.81C780.126 767.81 779.416 767.977 778.791 768.31C778.173 768.637 777.683 769.092 777.321 769.674C776.966 770.249 776.788 770.906 776.788 771.645V782H774.274ZM793.578 765.636V767.767H785.098V765.636H793.578ZM787.569 761.716H790.083V777.312C790.083 778.023 790.186 778.555 790.392 778.911C790.605 779.259 790.875 779.493 791.202 779.614C791.536 779.727 791.887 779.784 792.257 779.784C792.534 779.784 792.761 779.77 792.939 779.741C793.116 779.706 793.258 779.678 793.365 779.656L793.876 781.915C793.706 781.979 793.468 782.043 793.162 782.107C792.857 782.178 792.47 782.213 792.001 782.213C791.291 782.213 790.595 782.06 789.913 781.755C789.238 781.45 788.677 780.984 788.23 780.359C787.789 779.734 787.569 778.946 787.569 777.994V761.716ZM797.36 782V765.636H799.874V782H797.36ZM798.638 762.909C798.148 762.909 797.725 762.742 797.37 762.408C797.022 762.075 796.848 761.673 796.848 761.205C796.848 760.736 797.022 760.335 797.37 760.001C797.725 759.667 798.148 759.5 798.638 759.5C799.128 759.5 799.547 759.667 799.895 760.001C800.25 760.335 800.428 760.736 800.428 761.205C800.428 761.673 800.25 762.075 799.895 762.408C799.547 762.742 799.128 762.909 798.638 762.909ZM811.766 765.636V767.767H802.945V765.636H811.766ZM805.587 782V763.378C805.587 762.44 805.807 761.659 806.247 761.034C806.688 760.409 807.259 759.94 807.963 759.628C808.666 759.315 809.408 759.159 810.189 759.159C810.807 759.159 811.311 759.209 811.702 759.308C812.093 759.408 812.384 759.5 812.575 759.585L811.851 761.759C811.723 761.716 811.546 761.663 811.318 761.599C811.098 761.535 810.807 761.503 810.445 761.503C809.614 761.503 809.014 761.712 808.644 762.131C808.282 762.55 808.101 763.165 808.101 763.974V782H805.587ZM815.289 782V765.636H817.804V782H815.289ZM816.568 762.909C816.078 762.909 815.655 762.742 815.3 762.408C814.952 762.075 814.778 761.673 814.778 761.205C814.778 760.736 814.952 760.335 815.3 760.001C815.655 759.667 816.078 759.5 816.568 759.5C817.058 759.5 817.477 759.667 817.825 760.001C818.18 760.335 818.358 760.736 818.358 761.205C818.358 761.673 818.18 762.075 817.825 762.408C817.477 762.742 817.058 762.909 816.568 762.909ZM829.056 782.341C827.522 782.341 826.201 781.979 825.093 781.254C823.985 780.53 823.133 779.532 822.536 778.261C821.94 776.989 821.642 775.537 821.642 773.903C821.642 772.241 821.947 770.775 822.558 769.504C823.176 768.225 824.035 767.227 825.136 766.51C826.244 765.786 827.536 765.423 829.014 765.423C830.164 765.423 831.201 765.636 832.124 766.062C833.048 766.489 833.804 767.085 834.394 767.852C834.983 768.619 835.349 769.514 835.491 770.537H832.977C832.785 769.791 832.359 769.131 831.698 768.555C831.045 767.973 830.164 767.682 829.056 767.682C828.076 767.682 827.217 767.937 826.478 768.449C825.747 768.953 825.175 769.667 824.763 770.59C824.358 771.506 824.156 772.582 824.156 773.818C824.156 775.082 824.355 776.183 824.752 777.121C825.157 778.058 825.725 778.786 826.457 779.305C827.195 779.823 828.062 780.082 829.056 780.082C829.71 780.082 830.303 779.969 830.835 779.741C831.368 779.514 831.819 779.188 832.188 778.761C832.558 778.335 832.82 777.824 832.977 777.227H835.491C835.349 778.193 834.997 779.063 834.436 779.837C833.882 780.604 833.147 781.215 832.231 781.67C831.322 782.117 830.264 782.341 829.056 782.341ZM843.982 782.384C842.945 782.384 842.004 782.188 841.159 781.798C840.313 781.4 839.642 780.828 839.145 780.082C838.648 779.33 838.399 778.42 838.399 777.355C838.399 776.418 838.584 775.658 838.953 775.075C839.323 774.486 839.816 774.024 840.434 773.69C841.052 773.357 841.734 773.108 842.48 772.945C843.232 772.774 843.989 772.639 844.749 772.54C845.743 772.412 846.549 772.316 847.167 772.252C847.792 772.181 848.247 772.064 848.531 771.901C848.822 771.737 848.968 771.453 848.968 771.048V770.963C848.968 769.912 848.68 769.095 848.105 768.513C847.536 767.93 846.673 767.639 845.516 767.639C844.316 767.639 843.374 767.902 842.693 768.428C842.011 768.953 841.531 769.514 841.254 770.111L838.868 769.259C839.294 768.264 839.862 767.49 840.573 766.936C841.29 766.375 842.071 765.984 842.916 765.764C843.769 765.537 844.607 765.423 845.431 765.423C845.956 765.423 846.56 765.487 847.242 765.615C847.931 765.736 848.595 765.988 849.234 766.371C849.88 766.755 850.416 767.334 850.843 768.108C851.269 768.882 851.482 769.919 851.482 771.219V782H848.968V779.784H848.84C848.669 780.139 848.385 780.519 847.987 780.924C847.59 781.329 847.061 781.673 846.4 781.957C845.74 782.241 844.933 782.384 843.982 782.384ZM844.365 780.125C845.36 780.125 846.198 779.93 846.879 779.539C847.568 779.148 848.087 778.644 848.435 778.026C848.79 777.408 848.968 776.759 848.968 776.077V773.776C848.861 773.903 848.627 774.021 848.264 774.127C847.909 774.227 847.497 774.315 847.029 774.393C846.567 774.464 846.116 774.528 845.676 774.585C845.242 774.635 844.891 774.678 844.621 774.713C843.968 774.798 843.357 774.937 842.789 775.129C842.227 775.313 841.773 775.594 841.425 775.97C841.084 776.339 840.914 776.844 840.914 777.483C840.914 778.357 841.237 779.017 841.883 779.464C842.536 779.905 843.364 780.125 844.365 780.125ZM863.187 765.636V767.767H854.707V765.636H863.187ZM857.179 761.716H859.693V777.312C859.693 778.023 859.796 778.555 860.002 778.911C860.215 779.259 860.485 779.493 860.811 779.614C861.145 779.727 861.497 779.784 861.866 779.784C862.143 779.784 862.37 779.77 862.548 779.741C862.725 779.706 862.868 779.678 862.974 779.656L863.485 781.915C863.315 781.979 863.077 782.043 862.772 782.107C862.466 782.178 862.079 782.213 861.61 782.213C860.9 782.213 860.204 782.06 859.522 781.755C858.848 781.45 858.287 780.984 857.839 780.359C857.399 779.734 857.179 778.946 857.179 777.994V761.716ZM873.654 782.341C872.077 782.341 870.717 781.993 869.574 781.297C868.438 780.594 867.56 779.614 866.942 778.357C866.332 777.092 866.026 775.622 866.026 773.946C866.026 772.27 866.332 770.793 866.942 769.514C867.56 768.229 868.42 767.227 869.521 766.51C870.629 765.786 871.921 765.423 873.398 765.423C874.251 765.423 875.092 765.565 875.923 765.849C876.754 766.134 877.511 766.595 878.192 767.234C878.874 767.866 879.418 768.705 879.822 769.749C880.227 770.793 880.43 772.078 880.43 773.605V774.67H867.816V772.497H877.873C877.873 771.574 877.688 770.75 877.319 770.026C876.957 769.301 876.438 768.729 875.763 768.31C875.096 767.891 874.308 767.682 873.398 767.682C872.397 767.682 871.531 767.93 870.799 768.428C870.075 768.918 869.517 769.557 869.126 770.345C868.736 771.134 868.54 771.979 868.54 772.881V774.33C868.54 775.565 868.754 776.613 869.18 777.472C869.613 778.325 870.213 778.974 870.98 779.422C871.747 779.862 872.638 780.082 873.654 780.082C874.315 780.082 874.911 779.99 875.444 779.805C875.984 779.614 876.449 779.33 876.839 778.953C877.23 778.57 877.532 778.094 877.745 777.526L880.174 778.207C879.918 779.031 879.489 779.756 878.885 780.381C878.281 780.999 877.536 781.482 876.648 781.83C875.76 782.17 874.762 782.341 873.654 782.341ZM895.845 769.301L893.587 769.94C893.445 769.564 893.235 769.198 892.958 768.843C892.688 768.481 892.319 768.183 891.85 767.948C891.381 767.714 890.781 767.597 890.05 767.597C889.048 767.597 888.214 767.827 887.546 768.289C886.886 768.744 886.555 769.322 886.555 770.026C886.555 770.651 886.783 771.144 887.237 771.506C887.692 771.869 888.402 772.17 889.368 772.412L891.797 773.009C893.26 773.364 894.35 773.907 895.067 774.638C895.785 775.363 896.143 776.297 896.143 777.44C896.143 778.378 895.874 779.216 895.334 779.955C894.801 780.693 894.055 781.276 893.097 781.702C892.138 782.128 891.023 782.341 889.751 782.341C888.082 782.341 886.701 781.979 885.607 781.254C884.513 780.53 883.821 779.472 883.53 778.08L885.916 777.483C886.143 778.364 886.573 779.024 887.205 779.464C887.844 779.905 888.679 780.125 889.709 780.125C890.881 780.125 891.811 779.876 892.5 779.379C893.196 778.875 893.544 778.271 893.544 777.568C893.544 777 893.345 776.524 892.947 776.141C892.55 775.75 891.939 775.459 891.115 775.267L888.388 774.628C886.889 774.273 885.788 773.722 885.085 772.977C884.389 772.224 884.041 771.283 884.041 770.153C884.041 769.23 884.3 768.413 884.819 767.703C885.344 766.993 886.058 766.435 886.96 766.031C887.869 765.626 888.899 765.423 890.05 765.423C891.669 765.423 892.94 765.778 893.864 766.489C894.794 767.199 895.455 768.136 895.845 769.301Z" fill="white"/>
<path d="M1027.6 782.341C1026.03 782.341 1024.67 781.993 1023.52 781.297C1022.39 780.594 1021.51 779.614 1020.89 778.357C1020.28 777.092 1019.98 775.622 1019.98 773.946C1019.98 772.27 1020.28 770.793 1020.89 769.514C1021.51 768.229 1022.37 767.227 1023.47 766.51C1024.58 765.786 1025.87 765.423 1027.35 765.423C1028.2 765.423 1029.04 765.565 1029.87 765.849C1030.7 766.134 1031.46 766.595 1032.14 767.234C1032.82 767.866 1033.37 768.705 1033.77 769.749C1034.18 770.793 1034.38 772.078 1034.38 773.605V774.67H1021.77V772.497H1031.82C1031.82 771.574 1031.64 770.75 1031.27 770.026C1030.91 769.301 1030.39 768.729 1029.71 768.31C1029.05 767.891 1028.26 767.682 1027.35 767.682C1026.35 767.682 1025.48 767.93 1024.75 768.428C1024.02 768.918 1023.47 769.557 1023.08 770.345C1022.69 771.134 1022.49 771.979 1022.49 772.881V774.33C1022.49 775.565 1022.7 776.613 1023.13 777.472C1023.56 778.325 1024.16 778.974 1024.93 779.422C1025.7 779.862 1026.59 780.082 1027.6 780.082C1028.26 780.082 1028.86 779.99 1029.39 779.805C1029.93 779.614 1030.4 779.33 1030.79 778.953C1031.18 778.57 1031.48 778.094 1031.69 777.526L1034.12 778.207C1033.87 779.031 1033.44 779.756 1032.83 780.381C1032.23 780.999 1031.48 781.482 1030.6 781.83C1029.71 782.17 1028.71 782.341 1027.6 782.341ZM1047.58 771.474V773.818H1038.03V771.474H1047.58ZM1051.71 760.182L1058.19 778.548H1058.45L1064.92 760.182H1067.69L1059.68 782H1056.96L1048.94 760.182H1051.71ZM1076.09 782.341C1074.51 782.341 1073.15 781.993 1072.01 781.297C1070.87 780.594 1070 779.614 1069.38 778.357C1068.77 777.092 1068.46 775.622 1068.46 773.946C1068.46 772.27 1068.77 770.793 1069.38 769.514C1070 768.229 1070.86 767.227 1071.96 766.51C1073.06 765.786 1074.36 765.423 1075.83 765.423C1076.69 765.423 1077.53 765.565 1078.36 765.849C1079.19 766.134 1079.95 766.595 1080.63 767.234C1081.31 767.866 1081.85 768.705 1082.26 769.749C1082.66 770.793 1082.87 772.078 1082.87 773.605V774.67H1070.25V772.497H1080.31C1080.31 771.574 1080.12 770.75 1079.75 770.026C1079.39 769.301 1078.87 768.729 1078.2 768.31C1077.53 767.891 1076.74 767.682 1075.83 767.682C1074.83 767.682 1073.97 767.93 1073.23 768.428C1072.51 768.918 1071.95 769.557 1071.56 770.345C1071.17 771.134 1070.98 771.979 1070.98 772.881V774.33C1070.98 775.565 1071.19 776.613 1071.62 777.472C1072.05 778.325 1072.65 778.974 1073.42 779.422C1074.18 779.862 1075.07 780.082 1076.09 780.082C1076.75 780.082 1077.35 779.99 1077.88 779.805C1078.42 779.614 1078.88 779.33 1079.28 778.953C1079.67 778.57 1079.97 778.094 1080.18 777.526L1082.61 778.207C1082.35 779.031 1081.92 779.756 1081.32 780.381C1080.72 780.999 1079.97 781.482 1079.08 781.83C1078.2 782.17 1077.2 782.341 1076.09 782.341ZM1086.69 782V765.636H1089.12V768.108H1089.29C1089.59 767.298 1090.13 766.641 1090.91 766.137C1091.69 765.633 1092.57 765.381 1093.55 765.381C1093.74 765.381 1093.97 765.384 1094.24 765.391C1094.52 765.398 1094.73 765.409 1094.87 765.423V767.98C1094.79 767.959 1094.59 767.927 1094.29 767.884C1093.99 767.835 1093.67 767.81 1093.34 767.81C1092.54 767.81 1091.83 767.977 1091.21 768.31C1090.59 768.637 1090.1 769.092 1089.74 769.674C1089.38 770.249 1089.2 770.906 1089.2 771.645V782H1086.69ZM1097.85 782V765.636H1100.37V782H1097.85ZM1099.13 762.909C1098.64 762.909 1098.22 762.742 1097.86 762.408C1097.51 762.075 1097.34 761.673 1097.34 761.205C1097.34 760.736 1097.51 760.335 1097.86 760.001C1098.22 759.667 1098.64 759.5 1099.13 759.5C1099.62 759.5 1100.04 759.667 1100.39 760.001C1100.74 760.335 1100.92 760.736 1100.92 761.205C1100.92 761.673 1100.74 762.075 1100.39 762.408C1100.04 762.742 1099.62 762.909 1099.13 762.909ZM1112.26 765.636V767.767H1103.44V765.636H1112.26ZM1106.08 782V763.378C1106.08 762.44 1106.3 761.659 1106.74 761.034C1107.18 760.409 1107.75 759.94 1108.45 759.628C1109.16 759.315 1109.9 759.159 1110.68 759.159C1111.3 759.159 1111.8 759.209 1112.19 759.308C1112.58 759.408 1112.88 759.5 1113.07 759.585L1112.34 761.759C1112.22 761.716 1112.04 761.663 1111.81 761.599C1111.59 761.535 1111.3 761.503 1110.94 761.503C1110.11 761.503 1109.51 761.712 1109.14 762.131C1108.77 762.55 1108.59 763.165 1108.59 763.974V782H1106.08ZM1117.4 788.136C1116.97 788.136 1116.59 788.101 1116.26 788.03C1115.93 787.966 1115.7 787.902 1115.57 787.838L1116.21 785.622C1116.82 785.778 1117.36 785.835 1117.83 785.793C1118.3 785.75 1118.71 785.54 1119.07 785.164C1119.44 784.795 1119.78 784.195 1120.09 783.364L1120.55 782.085L1114.5 765.636H1117.23L1121.75 778.676H1121.92L1126.44 765.636H1129.16L1122.22 784.386C1121.9 785.232 1121.52 785.931 1121.06 786.485C1120.59 787.046 1120.06 787.462 1119.45 787.732C1118.84 788.001 1118.16 788.136 1117.4 788.136ZM1158.82 767H1156.17C1156.02 766.24 1155.74 765.572 1155.35 764.997C1154.97 764.422 1154.5 763.939 1153.95 763.548C1153.4 763.151 1152.79 762.852 1152.13 762.653C1151.46 762.455 1150.76 762.355 1150.04 762.355C1148.72 762.355 1147.52 762.689 1146.45 763.357C1145.38 764.024 1144.53 765.008 1143.9 766.308C1143.28 767.607 1142.96 769.202 1142.96 771.091C1142.96 772.98 1143.28 774.575 1143.9 775.874C1144.53 777.174 1145.38 778.158 1146.45 778.825C1147.52 779.493 1148.72 779.827 1150.04 779.827C1150.76 779.827 1151.46 779.727 1152.13 779.528C1152.79 779.33 1153.4 779.035 1153.95 778.644C1154.5 778.246 1154.97 777.76 1155.35 777.185C1155.74 776.602 1156.02 775.935 1156.17 775.182H1158.82C1158.62 776.297 1158.25 777.295 1157.73 778.175C1157.2 779.056 1156.55 779.805 1155.77 780.423C1154.99 781.034 1154.11 781.499 1153.14 781.819C1152.17 782.138 1151.14 782.298 1150.04 782.298C1148.18 782.298 1146.52 781.844 1145.07 780.935C1143.62 780.026 1142.48 778.733 1141.65 777.057C1140.82 775.381 1140.41 773.392 1140.41 771.091C1140.41 768.79 1140.82 766.801 1141.65 765.125C1142.48 763.449 1143.62 762.156 1145.07 761.247C1146.52 760.338 1148.18 759.884 1150.04 759.884C1151.14 759.884 1152.17 760.043 1153.14 760.363C1154.11 760.683 1154.99 761.151 1155.77 761.769C1156.55 762.38 1157.2 763.126 1157.73 764.006C1158.25 764.88 1158.62 765.878 1158.82 767ZM1169.61 782.341C1168.03 782.341 1166.67 781.993 1165.53 781.297C1164.39 780.594 1163.51 779.614 1162.89 778.357C1162.28 777.092 1161.98 775.622 1161.98 773.946C1161.98 772.27 1162.28 770.793 1162.89 769.514C1163.51 768.229 1164.37 767.227 1165.47 766.51C1166.58 765.786 1167.87 765.423 1169.35 765.423C1170.2 765.423 1171.04 765.565 1171.87 765.849C1172.71 766.134 1173.46 766.595 1174.14 767.234C1174.83 767.866 1175.37 768.705 1175.77 769.749C1176.18 770.793 1176.38 772.078 1176.38 773.605V774.67H1163.77V772.497H1173.82C1173.82 771.574 1173.64 770.75 1173.27 770.026C1172.91 769.301 1172.39 768.729 1171.71 768.31C1171.05 767.891 1170.26 767.682 1169.35 767.682C1168.35 767.682 1167.48 767.93 1166.75 768.428C1166.03 768.918 1165.47 769.557 1165.08 770.345C1164.69 771.134 1164.49 771.979 1164.49 772.881V774.33C1164.49 775.565 1164.7 776.613 1165.13 777.472C1165.56 778.325 1166.16 778.974 1166.93 779.422C1167.7 779.862 1168.59 780.082 1169.61 780.082C1170.27 780.082 1170.86 779.99 1171.4 779.805C1171.93 779.614 1172.4 779.33 1172.79 778.953C1173.18 778.57 1173.48 778.094 1173.7 777.526L1176.13 778.207C1175.87 779.031 1175.44 779.756 1174.84 780.381C1174.23 780.999 1173.49 781.482 1172.6 781.83C1171.71 782.17 1170.71 782.341 1169.61 782.341ZM1180.21 782V765.636H1182.63V768.108H1182.8C1183.1 767.298 1183.64 766.641 1184.42 766.137C1185.21 765.633 1186.09 765.381 1187.07 765.381C1187.25 765.381 1187.48 765.384 1187.76 765.391C1188.04 765.398 1188.25 765.409 1188.39 765.423V767.98C1188.3 767.959 1188.11 767.927 1187.8 767.884C1187.5 767.835 1187.19 767.81 1186.85 767.81C1186.06 767.81 1185.35 767.977 1184.72 768.31C1184.1 768.637 1183.61 769.092 1183.25 769.674C1182.9 770.249 1182.72 770.906 1182.72 771.645V782H1180.21ZM1199.51 765.636V767.767H1191.03V765.636H1199.51ZM1193.5 761.716H1196.02V777.312C1196.02 778.023 1196.12 778.555 1196.32 778.911C1196.54 779.259 1196.81 779.493 1197.13 779.614C1197.47 779.727 1197.82 779.784 1198.19 779.784C1198.47 779.784 1198.69 779.77 1198.87 779.741C1199.05 779.706 1199.19 779.678 1199.3 779.656L1199.81 781.915C1199.64 781.979 1199.4 782.043 1199.09 782.107C1198.79 782.178 1198.4 782.213 1197.93 782.213C1197.22 782.213 1196.53 782.06 1195.84 781.755C1195.17 781.45 1194.61 780.984 1194.16 780.359C1193.72 779.734 1193.5 778.946 1193.5 777.994V761.716ZM1203.29 782V765.636H1205.81V782H1203.29ZM1204.57 762.909C1204.08 762.909 1203.66 762.742 1203.3 762.408C1202.95 762.075 1202.78 761.673 1202.78 761.205C1202.78 760.736 1202.95 760.335 1203.3 760.001C1203.66 759.667 1204.08 759.5 1204.57 759.5C1205.06 759.5 1205.48 759.667 1205.83 760.001C1206.18 760.335 1206.36 760.736 1206.36 761.205C1206.36 761.673 1206.18 762.075 1205.83 762.408C1205.48 762.742 1205.06 762.909 1204.57 762.909ZM1217.7 765.636V767.767H1208.88V765.636H1217.7ZM1211.52 782V763.378C1211.52 762.44 1211.74 761.659 1212.18 761.034C1212.62 760.409 1213.19 759.94 1213.89 759.628C1214.6 759.315 1215.34 759.159 1216.12 759.159C1216.74 759.159 1217.24 759.209 1217.63 759.308C1218.02 759.408 1218.32 759.5 1218.51 759.585L1217.78 761.759C1217.65 761.716 1217.48 761.663 1217.25 761.599C1217.03 761.535 1216.74 761.503 1216.38 761.503C1215.55 761.503 1214.95 761.712 1214.58 762.131C1214.21 762.55 1214.03 763.165 1214.03 763.974V782H1211.52ZM1221.22 782V765.636H1223.74V782H1221.22ZM1222.5 762.909C1222.01 762.909 1221.59 762.742 1221.23 762.408C1220.88 762.075 1220.71 761.673 1220.71 761.205C1220.71 760.736 1220.88 760.335 1221.23 760.001C1221.59 759.667 1222.01 759.5 1222.5 759.5C1222.99 759.5 1223.41 759.667 1223.76 760.001C1224.11 760.335 1224.29 760.736 1224.29 761.205C1224.29 761.673 1224.11 762.075 1223.76 762.408C1223.41 762.742 1222.99 762.909 1222.5 762.909ZM1234.99 782.341C1233.45 782.341 1232.13 781.979 1231.02 781.254C1229.92 780.53 1229.06 779.532 1228.47 778.261C1227.87 776.989 1227.57 775.537 1227.57 773.903C1227.57 772.241 1227.88 770.775 1228.49 769.504C1229.11 768.225 1229.97 767.227 1231.07 766.51C1232.18 765.786 1233.47 765.423 1234.95 765.423C1236.1 765.423 1237.13 765.636 1238.06 766.062C1238.98 766.489 1239.74 767.085 1240.33 767.852C1240.91 768.619 1241.28 769.514 1241.42 770.537H1238.91C1238.72 769.791 1238.29 769.131 1237.63 768.555C1236.98 767.973 1236.1 767.682 1234.99 767.682C1234.01 767.682 1233.15 767.937 1232.41 768.449C1231.68 768.953 1231.11 769.667 1230.69 770.59C1230.29 771.506 1230.09 772.582 1230.09 773.818C1230.09 775.082 1230.29 776.183 1230.68 777.121C1231.09 778.058 1231.66 778.786 1232.39 779.305C1233.13 779.823 1233.99 780.082 1234.99 780.082C1235.64 780.082 1236.23 779.969 1236.77 779.741C1237.3 779.514 1237.75 779.188 1238.12 778.761C1238.49 778.335 1238.75 777.824 1238.91 777.227H1241.42C1241.28 778.193 1240.93 779.063 1240.37 779.837C1239.81 780.604 1239.08 781.215 1238.16 781.67C1237.25 782.117 1236.2 782.341 1234.99 782.341ZM1249.91 782.384C1248.88 782.384 1247.94 782.188 1247.09 781.798C1246.25 781.4 1245.57 780.828 1245.08 780.082C1244.58 779.33 1244.33 778.42 1244.33 777.355C1244.33 776.418 1244.52 775.658 1244.88 775.075C1245.25 774.486 1245.75 774.024 1246.37 773.69C1246.98 773.357 1247.67 773.108 1248.41 772.945C1249.16 772.774 1249.92 772.639 1250.68 772.54C1251.67 772.412 1252.48 772.316 1253.1 772.252C1253.72 772.181 1254.18 772.064 1254.46 771.901C1254.75 771.737 1254.9 771.453 1254.9 771.048V770.963C1254.9 769.912 1254.61 769.095 1254.04 768.513C1253.47 767.93 1252.61 767.639 1251.45 767.639C1250.25 767.639 1249.31 767.902 1248.62 768.428C1247.94 768.953 1247.46 769.514 1247.19 770.111L1244.8 769.259C1245.23 768.264 1245.79 767.49 1246.5 766.936C1247.22 766.375 1248 765.984 1248.85 765.764C1249.7 765.537 1250.54 765.423 1251.36 765.423C1251.89 765.423 1252.49 765.487 1253.17 765.615C1253.86 765.736 1254.53 765.988 1255.17 766.371C1255.81 766.755 1256.35 767.334 1256.77 768.108C1257.2 768.882 1257.41 769.919 1257.41 771.219V782H1254.9V779.784H1254.77C1254.6 780.139 1254.32 780.519 1253.92 780.924C1253.52 781.329 1252.99 781.673 1252.33 781.957C1251.67 782.241 1250.87 782.384 1249.91 782.384ZM1250.3 780.125C1251.29 780.125 1252.13 779.93 1252.81 779.539C1253.5 779.148 1254.02 778.644 1254.37 778.026C1254.72 777.408 1254.9 776.759 1254.9 776.077V773.776C1254.79 773.903 1254.56 774.021 1254.2 774.127C1253.84 774.227 1253.43 774.315 1252.96 774.393C1252.5 774.464 1252.05 774.528 1251.61 774.585C1251.17 774.635 1250.82 774.678 1250.55 774.713C1249.9 774.798 1249.29 774.937 1248.72 775.129C1248.16 775.313 1247.7 775.594 1247.36 775.97C1247.02 776.339 1246.85 776.844 1246.85 777.483C1246.85 778.357 1247.17 779.017 1247.81 779.464C1248.47 779.905 1249.3 780.125 1250.3 780.125ZM1269.12 765.636V767.767H1260.64V765.636H1269.12ZM1263.11 761.716H1265.62V777.312C1265.62 778.023 1265.73 778.555 1265.93 778.911C1266.15 779.259 1266.42 779.493 1266.74 779.614C1267.08 779.727 1267.43 779.784 1267.8 779.784C1268.07 779.784 1268.3 779.77 1268.48 779.741C1268.66 779.706 1268.8 779.678 1268.91 779.656L1269.42 781.915C1269.25 781.979 1269.01 782.043 1268.7 782.107C1268.4 782.178 1268.01 782.213 1267.54 782.213C1266.83 782.213 1266.14 782.06 1265.45 781.755C1264.78 781.45 1264.22 780.984 1263.77 780.359C1263.33 779.734 1263.11 778.946 1263.11 777.994V761.716ZM1279.59 782.341C1278.01 782.341 1276.65 781.993 1275.51 781.297C1274.37 780.594 1273.49 779.614 1272.87 778.357C1272.26 777.092 1271.96 775.622 1271.96 773.946C1271.96 772.27 1272.26 770.793 1272.87 769.514C1273.49 768.229 1274.35 767.227 1275.45 766.51C1276.56 765.786 1277.85 765.423 1279.33 765.423C1280.18 765.423 1281.02 765.565 1281.85 765.849C1282.69 766.134 1283.44 766.595 1284.12 767.234C1284.81 767.866 1285.35 768.705 1285.75 769.749C1286.16 770.793 1286.36 772.078 1286.36 773.605V774.67H1273.75V772.497H1283.8C1283.8 771.574 1283.62 770.75 1283.25 770.026C1282.89 769.301 1282.37 768.729 1281.7 768.31C1281.03 767.891 1280.24 767.682 1279.33 767.682C1278.33 767.682 1277.46 767.93 1276.73 768.428C1276.01 768.918 1275.45 769.557 1275.06 770.345C1274.67 771.134 1274.47 771.979 1274.47 772.881V774.33C1274.47 775.565 1274.69 776.613 1275.11 777.472C1275.54 778.325 1276.14 778.974 1276.91 779.422C1277.68 779.862 1278.57 780.082 1279.59 780.082C1280.25 780.082 1280.84 779.99 1281.38 779.805C1281.92 779.614 1282.38 779.33 1282.77 778.953C1283.16 778.57 1283.46 778.094 1283.68 777.526L1286.11 778.207C1285.85 779.031 1285.42 779.756 1284.82 780.381C1284.21 780.999 1283.47 781.482 1282.58 781.83C1281.69 782.17 1280.69 782.341 1279.59 782.341ZM1301.78 769.301L1299.52 769.94C1299.38 769.564 1299.17 769.198 1298.89 768.843C1298.62 768.481 1298.25 768.183 1297.78 767.948C1297.31 767.714 1296.71 767.597 1295.98 767.597C1294.98 767.597 1294.15 767.827 1293.48 768.289C1292.82 768.744 1292.49 769.322 1292.49 770.026C1292.49 770.651 1292.71 771.144 1293.17 771.506C1293.62 771.869 1294.33 772.17 1295.3 772.412L1297.73 773.009C1299.19 773.364 1300.28 773.907 1301 774.638C1301.72 775.363 1302.08 776.297 1302.08 777.44C1302.08 778.378 1301.81 779.216 1301.27 779.955C1300.73 780.693 1299.99 781.276 1299.03 781.702C1298.07 782.128 1296.95 782.341 1295.68 782.341C1294.01 782.341 1292.63 781.979 1291.54 781.254C1290.45 780.53 1289.75 779.472 1289.46 778.08L1291.85 777.483C1292.08 778.364 1292.5 779.024 1293.14 779.464C1293.78 779.905 1294.61 780.125 1295.64 780.125C1296.81 780.125 1297.74 779.876 1298.43 779.379C1299.13 778.875 1299.48 778.271 1299.48 777.568C1299.48 777 1299.28 776.524 1298.88 776.141C1298.48 775.75 1297.87 775.459 1297.05 775.267L1294.32 774.628C1292.82 774.273 1291.72 773.722 1291.02 772.977C1290.32 772.224 1289.97 771.283 1289.97 770.153C1289.97 769.23 1290.23 768.413 1290.75 767.703C1291.28 766.993 1291.99 766.435 1292.89 766.031C1293.8 765.626 1294.83 765.423 1295.98 765.423C1297.6 765.423 1298.87 765.778 1299.8 766.489C1300.73 767.199 1301.39 768.136 1301.78 769.301Z" fill="white"/>
<g filter="url(#filter0_f_537_144)">
<path d="M1458.34 -245.299C1741.98 -240.286 1969.66 -108.372 1966.88 49.3409C1964.09 207.053 1731.89 330.841 1448.25 325.828C1164.6 320.816 392.259 179.276 395.046 21.5634C397.834 -136.149 1174.69 -250.311 1458.34 -245.299Z" fill="#5FC8A2" fill-opacity="0.5"/>
</g>
<g filter="url(#filter1_f_537_144)">
<ellipse cx="433.534" cy="466.121" rx="433.534" ry="466.121" transform="matrix(0.358841 -0.933399 0.940459 0.339908 1360.6 652.319)" fill="#5FC8A2" fill-opacity="0.28"/>
</g>
</g>
<defs>
<filter id="filter0_f_537_144" x="195.039" y="-445.458" width="1971.86" height="971.433" filterUnits="userSpaceOnUse" color-interpolation-filters="sRGB">
<feFlood flood-opacity="0" result="BackgroundImageFix"/>
<feBlend mode="normal" in="SourceGraphic" in2="BackgroundImageFix" result="shape"/>
<feGaussianBlur stdDeviation="100" result="effect1_foregroundBlur_537_144"/>
</filter>
<filter id="filter1_f_537_144" x="1089.26" y="-428.59" width="1730.56" height="1669.38" filterUnits="userSpaceOnUse" color-interpolation-filters="sRGB">
<feFlood flood-opacity="0" result="BackgroundImageFix"/>
<feBlend mode="normal" in="SourceGraphic" in2="BackgroundImageFix" result="shape"/>
<feGaussianBlur stdDeviation="200" result="effect1_foregroundBlur_537_144"/>
</filter>
<clipPath id="clip0_537_144">
<rect width="1920" height="911" rx="20" fill="white"/>
</clipPath>
</defs>
</svg>
